2017-01-04 18:25:17
running
2017-01-04 18:29:21
{'/Volumes/G-SPEED Q/Titan-HD/HM/IncomingQT/A2016_131_001_001': ['01910001.mov']}
ffmpeg version 3.1.1 Copyright (c) 2000-2016 the FFmpeg developers
  built with Apple LLVM version 7.3.0 (clang-703.0.31)
  configuration: --prefix=/usr/local/Cellar/ffmpeg/3.1.1 --enable-shared --enable-pthreads --enable-gpl --enable-version3 --enable-hardcoded-tables --enable-avresample --cc=clang --host-cflags= --host-ldflags= --enable-opencl --enable-libx264 --enable-libmp3lame --enable-libxvid --enable-libfreetype --enable-libvorbis --enable-libvpx --enable-libass --enable-ffplay --enable-libfdk-aac --enable-libopus --enable-libx265 --disable-lzma --enable-nonfree --enable-vda
  libavutil      55. 28.100 / 55. 28.100
  libavcodec     57. 48.101 / 57. 48.101
  libavformat    57. 41.100 / 57. 41.100
  libavdevice    57.  0.101 / 57.  0.101
  libavfilter     6. 47.100 /  6. 47.100
  libavresample   3.  0.  0 /  3.  0.  0
  libswscale      4.  1.100 /  4.  1.100
  libswresample   2.  1.100 /  2.  1.100
  libpostproc    54.  0.100 / 54.  0.100
[concat @ 0x7ff0e9008800] Could not find codec parameters for stream 2 (Unknown: none): unknown codec
Consider increasing the value for the 'analyzeduration' and 'probesize' options
Input #0, concat, from 'concat.txt':
  Duration: N/A, start: 0.000000, bitrate: 51528 kb/s
    Stream #0:0(eng): Video: mpeg2video (4:2:2) (xd5b / 0x62356478), yuv422p(tv, bt709), 1920x1080 [SAR 1:1 DAR 16:9], 49992 kb/s, 29.97 fps, 29.97 tbr, 30k tbn, 30k tbc
    Metadata:
      creation_time   : 2017-01-04 19:27:26
      handler_name    : Apple Alias Data Handler
      encoder         : XDCAM HD422 1080i60 (50 Mb/s)
      timecode        : 00:00:00:00
    Stream #0:1(eng): Audio: pcm_s16le (sowt / 0x74776F73), 48000 Hz, stereo, s16, 1536 kb/s
    Metadata:
      creation_time   : 2017-01-04 19:27:26
      handler_name    : Apple Alias Data Handler
      timecode        : 00:00:00:00
    Stream #0:2: Unknown: none
Cannot map stream #0:2 - unsupported type.
If you want unsupported types ignored instead of failing, please use the -ignore_unknown option
If you want them copied, please use -copy_unknown
2017-01-04 18:29:24
The concatenation of  A2016_131_001_001 was unsuccessful

